# xmcd
#
# Track frame offsets:
#	150
#	13255
#	25768
#	35607
#	43409
#	54328
#	66489
#	78771
#
# Disc length: 1185 seconds
#
# Revision: 1
# Processed by: cddbd v1.5.2PL0 Copyright (c) Steve Scherf et al.
# Submitted via: audiograbber 1.83.01
#
DISCID=66049f08
DTITLE=Dolly Parton - Honky Tonk Angel
DYEAR=2000
DGENRE=Country
TTITLE0=Little Blossom
TTITLE1=Two Little Orphans
TTITLE2=Girl Left Alone
TTITLE3=Puppy Love
TTITLE4=(It Wasn't God Who Made) Honky Tonk Angels
TTITLE5=Making Believe
TTITLE6=Letter To Heaven
TTITLE7=Release Me
EXTD=
EXTT0=
EXTT1=
EXTT2=
EXTT3=
EXTT4=
EXTT5=
EXTT6=
EXTT7=
PLAYORDER=
